# xmcd CD database file
#
# Track frame offsets:
#	150
#	113378
#	209096
#
# Disc length: 3703 seconds
#
# Revision: 0
# Processed by: cddbd v1.5.2PL0 Copyright (c) Steve Scherf et al.
# Submitted via: CDex 1.70beta2
#
DISCID=220e7503
DTITLE=Various Artist - Salsa Del Recuerdo
DYEAR=2007
DGENRE=Salsa
TTITLE0=Various Artist - Salsa Erótica Mix
TTITLE1=Adolescent's Orquesta - Salsa Mix
TTITLE2=Various Artist - Salsa Brava Mix
EXTD=YEAR: 2007
EXTT0=
EXTT1=
EXTT2=
PLAYORDER=
